<?xml version="1.0" encoding="utf-8"?>
<!-- Generator: Adobe Illustrator 25.0.0, SVG Export Plug-In . SVG Version: 6.00 Build 0)  -->
<svg version="1.1" id="Layer_1" xmlns="http://www.w3.org/2000/svg" xmlns:xlink="http://www.w3.org/1999/xlink" x="0px" y="0px"
	 viewBox="0 0 1920 1080" style="enable-background:new 0 0 1920 1080;" xml:space="preserve">
<style type="text/css">
	.st0{fill:#FF865C;}
	.st1{fill:#FFEA5C;}
	.st2{fill:#00DA76;}
	.st3{fill:#0096CE;}
	.st4{fill-rule:evenodd;clip-rule:evenodd;fill:url(#SVGID_1_);}
</style>
<rect x="503.1" y="263.3" class="st0" width="913.7" height="138.3"/>
<path class="st1" d="M1499.9,512.3V540H420.1v-27.7h27.7v-27.7h27.7V457h27.7v-55.3l913.7,0V457h27.7v27.7h27.7v27.7L1499.9,512.3z"
	/>
<path class="st2" d="M1416.9,595.3v83l-913.7,0v-83h-27.7v-27.7h-27.7V540h1024.5v27.7h-27.7v27.7H1416.9z"/>
<rect x="503.1" y="678.3" class="st3" width="913.7" height="138.3"/>
<linearGradient id="SVGID_1_" gradientUnits="userSpaceOnUse" x1="960.0001" y1="954.8898" x2="960.0001" y2="124.8898" gradientTransform="matrix(1 0 0 1 0 0.1102)">
	<stop  offset="0.1667" style="stop-color:#800FFF"/>
	<stop  offset="0.8333" style="stop-color:#F50D5A"/>
</linearGradient>
<path class="st4" d="M558.5,955v-27.7h-83.1v-27.7h-27.7v-55.3h-27.7v-249h-27.7v-27.7h-27.7V540H337v-27.7h27.7v-27.7h27.7V457
	h27.7V235.7h27.7v-55.3h27.7v-27.7h83.1V125h803v27.7h83.1v27.7h27.7v55.3h27.7V457h27.7v27.7h27.7v27.7h27.7V540h-27.7v27.7h-27.7
	v27.7h-27.7v249h-27.7v55.3h-27.7v27.7h-83.1V955L558.5,955z M503.1,816.7V595.3h-27.7v-27.7h-27.7V540h-27.7v-27.7h27.7v-27.7h27.7
	V457h27.7V263.3h913.7V457h27.7v27.7h27.7v27.7h27.7V540h-27.7v27.7h-27.7v27.7h-27.7v221.3L503.1,816.7z"/>
</svg>
