<?xml version="1.0" encoding="utf-8"?>
<!-- Generator: Adobe Illustrator 25.0.0, SVG Export Plug-In . SVG Version: 6.00 Build 0)  -->
<svg version="1.1" id="Layer_1" xmlns="http://www.w3.org/2000/svg" xmlns:xlink="http://www.w3.org/1999/xlink" x="0px" y="0px"
	 viewBox="0 0 1920 1080" style="enable-background:new 0 0 1920 1080;" xml:space="preserve">
<style type="text/css">
	.st0{fill-rule:evenodd;clip-rule:evenodd;fill:#FFFFFF;}
	.st1{fill-rule:evenodd;clip-rule:evenodd;fill:#F50D5A;}
</style>
<path class="st0" d="M1727.3,560.2v23h-95.5V466.8h95.5v23.7h23.7v69.6H1727.3z M1702.8,491.3h-23.7V561h23.7V491.3z M1488.1,467.6
	h95.5v23.7h-47.4v23h47.4v23h-47.4v23h47.4v23h-95.5V467.6z M1416.3,583.9h-48.2v-92.6h-23.7v-23.7h95.5v23.7h-23.7V583.9z
	 M1248.9,467.6h48.2v116.3h-48.2V467.6z M1152.6,560.2h-23.7v-23h-23.7v46.7h-48.2V467.6h48.2v23.7h23.7v23h23.7v-46.7h48.2v116.3
	h-48.2V560.2z M985.2,583.9h-71.8v-23h-23.7v-92.6h48.2V561h23.7v-92.6h48.2V561H986v23H985.2z"/>
<path class="st1" d="M741.6,613.2v-24H837v24H741.6z M598.3,589.2v-24H670v24H598.3z M670,540.4h23.6v24H670V540.4z M622.7,516.4h48
	v24h-48V516.4z M598.3,492.4h23.6v24h-23.6V492.4z M694.4,467.6v24.8h-71.7v-24.8H694.4z M503,564.4v-48.8h23.6v48.8H503z
	 M480.1,589.2v-24H503v24H480.1z M455.7,516.4h24.4v48.8h-24.4V516.4z M431.3,467.6h23.6v48.8h-23.6V467.6z M527.4,467.6H551v48.8
	h-23.6V467.6z M312.4,467.6H384v24.8h-47.3v24H384v24h-47.3v24H384v24h-71.7V467.6z M240.7,492.4h23.6v72.8h-23.6V492.4z
	 M192.6,564.4h48v24H169V466.8h71.7v24.8h-48V564.4z"/>
</svg>
